<svg width="25" height="20" viewBox="0 0 25 20" fill="none" xmlns="http://www.w3.org/2000/svg">
<path fill-rule="evenodd" clip-rule="evenodd" d="M11.7438 19.8506L12.467 17.4998L13.335 19.8401C12.7564 20.0494 12.1777 20.0539 11.7438 19.8506ZM10.7304 3.90353C9.86244 3.17764 8.56052 2.49995 7.2586 2.49995C4.22079 2.49995 2.4849 4.99989 3.06353 8.43054C4.07613 14.3069 12.4663 17.4996 12.4663 17.4996C11.743 19.8505 11.743 19.8505 11.743 19.8505V19.8475V19.8445L11.5983 19.8339C11.5983 19.8249 11.5983 19.8128 11.5983 19.7978C11.4537 19.7661 11.309 19.724 11.309 19.6667C11.0197 19.5553 10.5857 19.3912 10.1518 19.1773C9.28381 18.7496 8.12655 18.1096 6.82463 17.2587C4.51011 15.6473 1.32764 12.8807 0.60435 8.8733C0.315035 6.63691 0.60435 4.41406 1.76161 2.6897C3.06353 0.929197 5.08874 0 7.2586 0C9.42847 0 11.309 1.1822 12.4663 2.09483C12.4663 2.11441 12.4663 2.13248 12.4663 2.15056C12.4663 2.13248 12.6109 2.11441 12.6109 2.09483C13.6235 1.1822 15.5041 0 17.8186 0C22.737 0 25.1962 4.99387 24.3282 8.96818C23.4603 12.8732 20.4225 15.6111 18.1079 17.2316C16.9507 18.084 15.7934 18.727 14.9255 19.1577C14.4915 19.3746 14.0575 19.5402 13.7682 19.6532C13.6235 19.7104 13.6235 19.7541 13.4789 19.7857C13.4789 19.8008 13.4789 19.8128 13.3342 19.8219V19.8324V19.8369V19.8384C13.3342 19.8384 13.3342 19.8399 12.4663 17.4996C12.4663 17.4996 20.7118 14.2602 22.0137 8.43054C22.5923 5.62488 20.8564 2.49995 17.8186 2.49995C16.372 2.49995 15.2148 3.17764 14.2022 3.90353C13.1896 4.73333 12.4663 5.62488 12.4663 5.62488C12.4663 5.62488 11.8876 4.73333 10.7304 3.90353Z" fill="black"/>
</svg>
