<svg width="14" height="20" viewBox="0 0 14 20" fill="none" xmlns="http://www.w3.org/2000/svg">
<path fill-rule="evenodd" clip-rule="evenodd" d="M6.2754 11.9518C3.8616 11.6145 1.93057 9.53012 1.93057 7C1.93057 4.24096 4.22367 2 6.99953 2C9.7754 2 11.9478 4.24096 11.9478 7C11.9478 9.31325 10.3788 11.2651 8.32712 11.8313V9.73494L9.41333 7.43373C9.65471 6.93976 9.41333 6.33735 8.93057 6.09639C8.44781 5.85542 7.84436 6.07229 7.60298 6.56626L7.12022 7.55422L6.2754 6.42169C5.91333 5.96386 5.30988 5.86747 4.94781 6.19277C4.46505 6.51807 4.34436 7.13253 4.70643 7.59036L6.2754 9.81928V11.9518ZM7.24058 14.0001C7.11989 14.0001 6.9992 14.0001 6.9992 14.0001C6.27507 14.0001 5.55093 13.9037 4.94748 13.7109V15.0001H8.93024V13.7109C8.44748 13.8555 7.96472 13.9519 7.48196 13.988C7.36127 14.0001 7.36127 14.0001 7.24058 14.0001ZM8.68911 16.9999H5.18911C5.55118 17.6023 6.27531 17.9999 6.99945 17.9999C7.72359 17.9999 8.32704 17.6023 8.68911 16.9999ZM3.01724 15V13C3.01724 12.9157 3.01724 12.8434 3.01724 12.7711C1.2069 11.506 0 9.39759 0 7C0 3.13253 3.13793 0 7 0C10.8621 0 14 3.13253 14 7C14 9.39759 12.7931 11.506 10.9828 12.7711C10.9828 12.8434 10.9828 12.9157 10.9828 13V15V16C10.9828 18.2169 9.17241 20 7 20C4.82759 20 3.01724 18.2169 3.01724 16V15Z" fill="black"/>
</svg>
