<svg width="15" height="21" viewBox="0 0 15 21" fill="none" xmlns="http://www.w3.org/2000/svg">
<path fill-rule="evenodd" clip-rule="evenodd" d="M4.43085 0.622411C4.5596 0.244157 4.94585 0 5.3321 0H11.6409C12.0271 0 12.4134 0.169518 12.5421 0.452893C12.7996 0.737532 12.7996 1.10061 12.6709 1.4232L10.4821 7.19948H13.9584C14.3446 7.19948 14.7309 7.45375 14.8596 7.84466C15.1171 8.23556 14.9884 8.68592 14.7309 8.98701L2.88584 20.6876C2.62834 21.0304 1.98459 21.0987 1.59834 20.8546C1.21208 20.6104 0.954584 20.1158 1.08333 19.654L3.52959 11.55H1.08333C0.697083 11.55 0.439582 11.3704 0.182081 11.0718C0.0533302 10.7745 -0.0754203 10.3988 0.0533302 10.0737L4.43085 0.622411ZM6.10531 2.1001L2.75779 9.45011H4.94655C5.3328 9.45011 5.5903 9.60572 5.84781 9.87138C6.10531 10.1358 6.10531 10.4786 5.97656 10.7961L4.43155 16.2384L11.3841 9.29957H8.93782C8.55157 9.29957 8.16531 9.13005 8.03656 8.84541C7.77906 8.56204 7.77906 8.19897 7.90781 7.87638L10.0966 2.1001H6.10531Z" fill="black"/>
</svg>
