<svg width="30" height="30" viewBox="0 0 30 30" fill="none" xmlns="http://www.w3.org/2000/svg">
<circle cx="15" cy="15" r="15" fill="black"/>
<path fill-rule="evenodd" clip-rule="evenodd" d="M16.1208 14.264L16.1208 7.31348C16.1208 6.80003 15.7058 6.38508 15.1924 6.38508C14.6789 6.38508 14.264 6.80003 14.264 7.31348L14.264 14.264L7.31348 14.264C6.80004 14.264 6.38508 14.6789 6.38508 15.1924C6.38508 15.7058 6.80004 16.1208 7.31348 16.1208L14.264 16.1208L14.264 23.0713C14.264 23.5847 14.6789 23.9997 15.1924 23.9997C15.4485 23.9997 15.6809 23.896 15.849 23.7279C16.017 23.5598 16.1208 23.3274 16.1208 23.0713L16.1208 16.1208L23.0713 16.1208C23.3274 16.1208 23.5598 16.017 23.7279 15.849C23.896 15.6809 23.9997 15.4484 23.9997 15.1924C23.9997 14.6789 23.5847 14.264 23.0713 14.264L16.1208 14.264Z" fill="white"/>
</svg>
