<svg width="20" height="20" viewBox="0 0 20 20" fill="none" xmlns="http://www.w3.org/2000/svg">
<path fill-rule="evenodd" clip-rule="evenodd" d="M11.0698 0C9.62589 0 8.54297 1.28246 8.42265 2.81392C8.42265 3.47791 8.30233 4.18742 8.30233 4.74163C8.182 4.94511 8.182 5.249 7.94136 5.6332C7.82103 6.00536 7.58039 6.39224 7.33974 6.75368C7.09909 7.11111 6.85844 7.42838 6.73812 7.65462C6.73812 7.6921 6.73812 7.72691 6.6178 7.75904L5.17391 8.22222C4.93327 7.94244 4.45197 7.77778 3.97068 7.77778H2.0455C0.962589 7.77778 0 8.77242 0 10V17.7778C0 19.0054 0.962589 20 2.0455 20H3.97068C4.69262 20 5.17391 19.6961 5.53488 19.2169C6.49747 19.7323 7.58039 20 8.6633 20H16.2437C17.6876 20 19.0111 18.7871 19.2518 17.1499L19.9737 11.4351C20.2144 9.42303 18.7705 7.61847 16.9656 7.61847H14.6795V4.05622C14.6795 1.8166 13.1153 0 11.0698 0ZM6.01611 17.0027L6.37708 17.2182C7.09903 17.5863 7.82097 17.7778 8.66323 17.7778H16.2436C16.7249 17.7778 17.2062 17.3735 17.2062 16.8273L17.9281 11.1138C18.0485 10.4431 17.5672 9.84069 16.9656 9.84069H13.7168C13.1152 9.84069 12.7542 9.34403 12.7542 8.72958V4.05622C12.7542 3.04283 11.912 2.22221 11.0697 2.22221C10.7087 2.22221 10.4681 2.51539 10.4681 2.93172C10.3478 3.6198 10.3478 4.42436 10.2274 5.09905C10.1071 5.63988 9.98679 6.18473 9.74614 6.65327C9.5055 7.1352 9.26485 7.60642 9.0242 8.01338C8.78356 8.42168 8.54291 8.77777 8.30226 9.03212C8.18194 9.16063 8.18194 9.26237 8.06161 9.33466C8.06161 9.37081 8.06161 9.39892 8.06161 9.419L7.94129 9.4431V9.44979V9.45113V9.45247C7.94129 9.45247 7.94129 9.45247 7.21935 8.72958L7.94129 9.45247C7.82097 9.61713 7.70064 9.73627 7.46 9.79651L6.01611 10.2771V17.0027ZM3.97108 10H2.0459V12.2222V15.5556V17.7778H3.97108V17.6988V15.5556V12.2222V10Z" fill="black"/>
</svg>
