<svg width="29" height="20" viewBox="0 0 29 20" fill="none" xmlns="http://www.w3.org/2000/svg">
<path fill-rule="evenodd" clip-rule="evenodd" d="M3.67206 9.39762C3.67206 9.62138 3.50288 9.82792 3.33369 10C3.50288 10.1722 3.67206 10.3615 3.67206 10.5852C4.17961 11.3253 4.85635 12.3064 5.70227 13.2875C7.5633 15.2324 10.4394 17.1429 14.4999 17.1429C18.5603 17.1429 21.2672 15.2324 23.1283 13.2875C24.1434 12.3064 24.8201 11.3253 25.1585 10.5852C25.3276 10.3615 25.4968 10.1722 25.4968 10C25.4968 9.82792 25.3276 9.62138 25.1585 9.39762C24.8201 8.65752 24.1434 7.67645 23.1283 6.69539C21.2672 4.75046 18.5603 2.85718 14.4999 2.85718C10.4394 2.85718 7.5633 4.75046 5.70227 6.69539C4.85635 7.67645 4.17961 8.65752 3.67206 9.39762ZM28.3731 10.568C28.3731 10.5508 28.3731 10.5508 27.1888 10L28.3731 10.5508C28.5423 10.2065 28.5423 9.79346 28.3731 9.43201L27.1888 10C28.3731 9.43201 28.3731 9.43201 28.3731 9.43201V9.4148V9.39759C28.3731 9.36317 28.3731 9.32874 28.3731 9.29432C28.3731 9.22547 28.2039 9.1222 28.2039 8.98451C28.0347 8.72633 27.8656 8.34768 27.5272 7.91738C27.0196 7.03959 26.3429 5.8864 25.1586 4.71601C22.9592 2.37522 19.4063 0 14.5 0C9.42447 0 6.04079 2.37522 3.84139 4.71601C2.6571 5.8864 1.81118 7.03959 1.30363 7.91738C1.13444 8.34768 0.965257 8.72633 0.796073 8.98451C0.626888 9.1222 0.626888 9.22547 0.626888 9.29432C0.626888 9.32874 0.626888 9.36317 0.626888 9.39759V9.4148V9.43201C0.626888 9.43201 0.626888 9.43201 1.81118 10L0.626888 9.43201C0.457704 9.79346 0.457704 10.2065 0.626888 10.5508L1.81118 10C0.626888 10.5508 0.626888 10.5508 0.626888 10.568V10.6024C0.626888 10.6196 0.626888 10.654 0.626888 10.6885C0.626888 10.7745 0.626888 10.8778 0.796073 11.0155C0.965257 11.2737 1.13444 11.6351 1.30363 12.0826C1.81118 12.9432 2.6571 14.1136 3.84139 15.2668C6.04079 17.6076 9.42447 20 14.5 20C19.4063 20 22.9592 17.6076 25.1586 15.2668C26.3429 14.1136 27.0196 12.9432 27.5272 12.0826C27.8656 11.6351 28.0347 11.2737 28.2039 11.0155C28.2039 10.8778 28.3731 10.7745 28.3731 10.6885C28.3731 10.654 28.3731 10.6196 28.3731 10.6024V10.568ZM14.5002 12.8571C12.9775 12.8571 11.6241 11.5662 11.6241 9.99996C11.6241 8.41649 12.9775 7.14282 14.5002 7.14282C16.0229 7.14282 17.2071 8.41649 17.2071 9.99996C17.2071 11.5662 16.0229 12.8571 14.5002 12.8571ZM8.9166 10.0002C8.9166 6.83322 11.4544 4.28589 14.4997 4.28589C17.545 4.28589 20.0828 6.83322 20.0828 10.0002C20.0828 13.1499 17.545 15.7145 14.4997 15.7145C11.4544 15.7145 8.9166 13.1499 8.9166 10.0002Z" fill="black"/>
</svg>
