<svg width="21" height="20" viewBox="0 0 21 20" fill="none" xmlns="http://www.w3.org/2000/svg">
<path fill-rule="evenodd" clip-rule="evenodd" d="M10.5339 0C11.2563 0 11.8582 0.387943 12.2193 1.01564L14.627 5.32518L18.8405 6.14805C19.5628 6.29142 20.1648 6.83117 20.4055 7.54802C20.6463 8.26487 20.4055 9.03956 19.924 9.55521L16.6736 12.6202L17.3959 17.7116C17.5163 18.4502 17.1551 19.1875 16.5532 19.6237C15.9513 20.0598 15.229 20.1212 14.5067 19.7851L10.5339 17.7406L6.44084 19.7851C5.83891 20.1212 4.99621 20.0598 4.39428 19.6237C3.79236 19.1875 3.4312 18.4502 3.55159 17.7116L4.2739 12.6202L1.14388 9.55521C0.541951 9.03956 0.421565 8.26487 0.541951 7.54802C0.782721 6.83117 1.38465 6.29142 2.10696 6.14805L6.32045 5.32518L8.72816 1.01564C9.08932 0.387943 9.81163 0 10.5339 0ZM7.64477 7.11073L2.46819 8.11071L6.44091 11.8877L5.59821 17.9996L10.534 15.4997L15.4698 17.9996L14.5067 11.8877L18.4795 8.11071L13.4233 7.11073L10.534 2L7.64477 7.11073Z" fill="black"/>
</svg>
